<svg width="704" height="404" viewBox="0 0 704 404" fill="none" xmlns="http://www.w3.org/2000/svg">
<g clip-path="url(#clip0_141_26)">
<path fill-rule="evenodd" clip-rule="evenodd" d="M93.3309 0H610.671C617.466 0 623.025 5.56456 623.025 12.3665V360.556C623.025 367.358 617.466 372.923 610.671 372.923H93.3309C86.5356 372.923 80.9751 367.358 80.9751 360.556V12.3665C80.9751 5.56456 86.5356 0 93.3309 0Z" fill="#1A1A1A"/>
<path fill-rule="evenodd" clip-rule="evenodd" d="M99.1581 16.5891H604.845V356.339H99.1581V16.5891Z" fill="#161616"/>
<path fill-rule="evenodd" clip-rule="evenodd" d="M99.1567 16.5906H604.843V356.336C399.941 321.852 235.62 192.763 99.1567 16.5906Z" fill="#121212"/>
<path d="M17.0101 369.944H686.99C696.336 369.944 704 377.615 704 386.97C704 396.326 696.336 404 686.99 404H17.0101C7.66425 404 0 396.33 0 386.975C0 377.616 7.66013 369.944 17.0101 369.944Z" fill="#A5A5A5"/>
<path d="M686.99 375.105H17.0101C10.4748 375.105 5.15625 380.43 5.15625 386.97C5.15625 393.511 10.4748 398.84 17.0101 398.84H686.99C693.521 398.84 698.844 393.511 698.844 386.975C698.844 380.434 693.525 375.105 686.99 375.105Z" fill="#CBCBCB"/>
<path fill-rule="evenodd" clip-rule="evenodd" d="M331.704 380.046H372.295C376.101 380.046 379.215 383.164 379.215 386.973C379.215 390.783 376.101 393.899 372.295 393.899H331.704C329.87 393.894 328.113 393.163 326.817 391.865C325.52 390.567 324.79 388.809 324.785 386.973C324.785 383.164 327.898 380.046 331.704 380.046Z" fill="#A5A5A5"/>
<g filter="url(#filter0_d_141_26)">
<path d="M467.125 117.5L437.875 285.75L366.875 287.25L351.625 202.5L336.375 280.75L265.375 283.25L235.875 122.5L297.875 117L310.375 215.75L327.125 124.5H375.875L395.375 217L405.375 112L467.125 117.5Z" fill="#96AC9E"/>
</g>
</g>
<defs>
<filter id="filter0_d_141_26" x="231.875" y="112" width="239.25" height="183.25" filterUnits="userSpaceOnUse" color-interpolation-filters="sRGB">
<feFlood flood-opacity="0" result="BackgroundImageFix"/>
<feColorMatrix in="SourceAlpha" type="matrix" values="0 0 0 0 0 0 0 0 0 0 0 0 0 0 0 0 0 0 127 0" result="hardAlpha"/>
<feOffset dy="4"/>
<feGaussianBlur stdDeviation="2"/>
<feComposite in2="hardAlpha" operator="out"/>
<feColorMatrix type="matrix" values="0 0 0 0 0 0 0 0 0 0 0 0 0 0 0 0 0 0 0.25 0"/>
<feBlend mode="normal" in2="BackgroundImageFix" result="effect1_dropShadow_141_26"/>
<feBlend mode="normal" in="SourceGraphic" in2="effect1_dropShadow_141_26" result="shape"/>
</filter>
<clipPath id="clip0_141_26">
<rect width="704" height="404" fill="white"/>
</clipPath>
</defs>
</svg>
