<svg width="56" height="71" viewBox="0 0 56 71" fill="none" xmlns="http://www.w3.org/2000/svg">
<path d="M48.8002 11.8791L48.8003 11.8793C49.4818 12.5836 49.846 13.5345 49.8066 14.5134L49.8066 14.5136L49.2759 27.6256C49.1978 29.5572 47.5995 31.0713 45.669 31.0713H10.3311C8.40047 31.0713 6.80236 29.5572 6.72422 27.6256C6.72422 27.6256 6.72422 27.6256 6.72422 27.6256L6.19353 14.5136L6.19353 14.5136C6.15397 13.5348 6.51787 12.5836 7.19972 11.8792L48.8002 11.8791ZM48.8002 11.8791C48.1188 11.1754 47.1797 10.7789 46.1997 10.7789M48.8002 11.8791L46.1997 10.7789M46.1997 10.7789H9.80028M46.1997 10.7789H9.80028M9.80028 10.7789C8.8204 10.7789 7.8811 11.1753 7.19982 11.8791L9.80028 10.7789Z" fill="#C5B59B" stroke="#312219" stroke-width="2"/>
<mask id="path-2-outside-1_293_18" maskUnits="userSpaceOnUse" x="6.76605" y="48.7078" width="43" height="23" fill="black">
<rect fill="white" x="6.76605" y="48.7078" width="43" height="23"/>
<path d="M44.6241 50.7078H11.3757C10.6655 50.7078 9.98579 50.9951 9.49373 51.5035C9.00167 52.0119 8.73956 52.6975 8.76817 53.4018C9.09331 61.4351 9.04532 60.2488 9.05718 60.5422L9.04914 60.3444L9.29886 66.5136C9.3549 67.9028 10.5058 69 11.9064 69H44.0934C45.494 69 46.645 67.9028 46.7011 66.5138L47.1025 56.5962L47.0302 58.3787C47.1184 56.1998 47.0957 56.7593 47.2317 53.402C47.2913 51.9327 46.106 50.7078 44.6241 50.7078Z"/>
</mask>
<path d="M44.6241 50.7078H11.3757C10.6655 50.7078 9.98579 50.9951 9.49373 51.5035C9.00167 52.0119 8.73956 52.6975 8.76817 53.4018C9.09331 61.4351 9.04532 60.2488 9.05718 60.5422L9.04914 60.3444L9.29886 66.5136C9.3549 67.9028 10.5058 69 11.9064 69H44.0934C45.494 69 46.645 67.9028 46.7011 66.5138L47.1025 56.5962L47.0302 58.3787C47.1184 56.1998 47.0957 56.7593 47.2317 53.402C47.2913 51.9327 46.106 50.7078 44.6241 50.7078Z" fill="#C5B59B"/>
<path d="M8.76817 53.4018L10.7665 53.3209L10.7665 53.3206L8.76817 53.4018ZM9.05718 60.5422L7.05883 60.6235L11.0555 60.4614L9.05718 60.5422ZM9.04914 60.3444L11.0475 60.2631L7.05078 60.4253L9.04914 60.3444ZM9.29886 66.5136L11.2972 66.433L11.2972 66.4327L9.29886 66.5136ZM46.7011 66.5138L44.7028 66.433L44.7028 66.433L46.7011 66.5138ZM47.1025 56.5962L49.1008 56.677L45.1041 56.5152L47.1025 56.5962ZM47.0302 58.3787L45.0319 58.2978L49.0286 58.4597L47.0302 58.3787ZM47.2317 53.402L45.2333 53.321L45.2333 53.3211L47.2317 53.402ZM44.6241 48.7078H11.3757V52.7078H44.6241V48.7078ZM11.3757 48.7078C10.1262 48.7078 8.92715 49.2132 8.05663 50.1126L10.9308 52.8945C11.0444 52.7771 11.2048 52.7078 11.3757 52.7078V48.7078ZM8.05663 50.1126C7.18572 51.0124 6.71889 52.2293 6.76982 53.4829L10.7665 53.3206C10.7602 53.1657 10.8176 53.0114 10.9308 52.8945L8.05663 50.1126ZM6.76981 53.4826C7.09495 61.516 7.04695 60.3297 7.05882 60.623L11.0555 60.4614C11.0437 60.168 11.0917 61.3541 10.7665 53.3209L6.76981 53.4826ZM11.0555 60.461L11.0475 60.2631L7.05079 60.4256L7.05883 60.6235L11.0555 60.461ZM7.05078 60.4253L7.3005 66.5945L11.2972 66.4327L11.0475 60.2635L7.05078 60.4253ZM7.30049 66.5942C7.40032 69.0692 9.44608 71 11.9064 71V67C11.5655 67 11.3095 66.7364 11.2972 66.433L7.30049 66.5942ZM11.9064 71H44.0934V67H11.9064V71ZM44.0934 71C46.5537 71 48.5994 69.0693 48.6995 66.5947L44.7028 66.433C44.6905 66.7363 44.4344 67 44.0934 67V71ZM48.6995 66.5947L49.1008 56.677L45.1041 56.5153L44.7028 66.433L48.6995 66.5947ZM45.1041 56.5152L45.0319 58.2977L49.0286 58.4597L49.1008 56.6772L45.1041 56.5152ZM49.0286 58.4596C49.1168 56.2806 49.0941 56.8403 49.23 53.4829L45.2333 53.3211C45.0974 56.6784 45.1201 56.119 45.0319 58.2978L49.0286 58.4596ZM49.23 53.4831C49.3363 50.8634 47.2273 48.7078 44.6241 48.7078V52.7078C44.9846 52.7078 45.2463 53.002 45.2333 53.321L49.23 53.4831Z" fill="#312219" mask="url(#path-2-outside-1_293_18)"/>
<path d="M49.3848 24.9314L49.4269 23.891H48.3856H7.61426H6.57297L6.61508 24.9314L7.86961 55.9286L7.90845 56.8881H8.8688H47.1311H48.0914L48.1303 55.9286L49.3848 24.9314Z" fill="#5B2E12" stroke="#312219" stroke-width="2"/>
<path d="M6.27051 13.6173L6.2705 13.6173C6.04168 14.6799 6.30919 15.7872 6.99596 16.6299C7.68235 17.4721 8.71332 17.9594 9.80028 17.9594H46.1994C47.2864 17.9594 48.3173 17.4722 49.0036 16.6301C49.6907 15.7874 49.9582 14.6798 49.7292 13.6172L47.6231 3.83819C47.2654 2.17788 45.7907 1 44.0934 1H11.9064C10.209 1 8.73445 2.17792 8.37668 3.83806L8.37666 3.83819L6.27051 13.6173Z" fill="#5A4D46" stroke="#312219" stroke-width="2"/>
<path d="M4.60981 17.9594H51.3902C53.3765 17.9594 55 16.3593 55 14.3693C55 12.3793 53.3766 10.7791 51.3902 10.7791H4.60981C2.62334 10.7791 1 12.3792 1 14.3691C1 16.3591 2.62344 17.9594 4.60981 17.9594Z" fill="#463B36" stroke="#312219" stroke-width="2"/>
<path d="M17.9545 46.4594C17.8763 46.2875 17.7982 46.1234 17.7201 45.9672C17.642 45.8109 17.5638 45.6703 17.4857 45.5453C17.2982 45.1703 17.1342 44.8344 16.9935 44.5375C16.8529 44.2406 16.7201 43.8969 16.5951 43.5062C16.642 43.2406 16.7201 42.7953 16.8295 42.1703C16.9545 41.5453 17.0951 40.8656 17.2513 40.1312C17.4076 39.3812 17.5717 38.6234 17.7435 37.8578C17.931 37.0922 18.1185 36.4359 18.306 35.889C18.4779 35.4047 18.6654 34.889 18.8685 34.3422C19.0873 33.7953 19.3217 33.2953 19.5717 32.8422C19.8373 32.3734 20.1185 31.975 20.4154 31.6469C20.7123 31.3187 21.0326 31.1234 21.3763 31.0609C21.4701 31.1859 21.5717 31.2875 21.681 31.3656C21.7904 31.4281 21.892 31.475 21.9857 31.5062C22.2513 31.8812 22.5092 32.2015 22.7592 32.4672C23.0092 32.7172 23.306 32.9672 23.6498 33.2172C23.556 33.6859 23.4154 34.2094 23.2279 34.7875C23.056 35.35 22.8685 35.9203 22.6654 36.4984C22.4779 37.0765 22.2904 37.639 22.1029 38.1859C21.9154 38.7172 21.767 39.1781 21.6576 39.5687C21.5638 39.8812 21.4701 40.2406 21.3763 40.6469C21.2982 40.9906 21.2123 41.4047 21.1185 41.889C21.0404 42.3734 20.9623 42.9047 20.8842 43.4828C21.1029 43.4203 21.3451 43.2953 21.6107 43.1078C21.892 42.9203 22.1498 42.725 22.3842 42.5219C22.6654 42.2875 22.9388 42.0375 23.2045 41.7719C23.5638 41.4125 23.8685 41.0844 24.1185 40.7875C24.3685 40.4906 24.5951 40.1859 24.7982 39.8734C25.017 39.5453 25.2357 39.1937 25.4545 38.8187C25.6888 38.4281 25.9623 37.9672 26.2748 37.4359C26.556 36.9828 26.8451 36.4984 27.142 35.9828C27.4545 35.4672 27.767 34.975 28.0795 34.5062C28.392 34.0375 28.6967 33.6078 28.9935 33.2172C29.2904 32.8109 29.5638 32.4984 29.8138 32.2797C29.9857 32.4515 30.181 32.6312 30.3998 32.8187C30.6342 33.0062 30.8842 33.139 31.1498 33.2172C31.2592 33.389 31.3607 33.5453 31.4545 33.6859C31.5638 33.8109 31.6654 33.9359 31.7592 34.0609C31.8842 34.2328 31.9935 34.389 32.0873 34.5297C32.1967 34.6703 32.2904 34.8265 32.3685 34.9984C32.3529 35.1234 32.3217 35.2875 32.2748 35.4906C32.2435 35.6937 32.2045 35.9203 32.1576 36.1703C32.1107 36.4047 32.056 36.6469 31.9935 36.8969C31.9467 37.1469 31.8998 37.389 31.8529 37.6234C31.6967 38.3265 31.5795 38.8578 31.5013 39.2172C31.4232 39.5765 31.3685 39.8578 31.3373 40.0609C31.306 40.264 31.2826 40.4359 31.267 40.5765C31.267 40.7172 31.267 40.9125 31.267 41.1625C31.267 41.35 31.2826 41.5375 31.3138 41.725C31.3451 41.8969 31.3763 42.0765 31.4076 42.264C31.4545 42.4359 31.5326 42.6 31.642 42.7562L32.767 41.889C33.0795 41.6547 33.3763 41.3265 33.6576 40.9047C33.9545 40.4672 34.2357 39.975 34.5013 39.4281C34.7826 38.8656 35.056 38.264 35.3217 37.6234C35.5873 36.9672 35.8529 36.2953 36.1185 35.6078C36.306 35.1078 36.4935 34.6156 36.681 34.1312C36.8842 33.6312 37.0873 33.1625 37.2904 32.725C37.4935 32.2719 37.6888 31.8656 37.8763 31.5062C38.0795 31.1312 38.2748 30.8187 38.4623 30.5687C38.8842 30.8344 39.2435 31.1 39.5404 31.3656C39.8529 31.6312 40.1185 31.9281 40.3373 32.2562C40.5717 32.5687 40.7513 32.9359 40.8763 33.3578C41.017 33.764 41.1185 34.2484 41.181 34.8109C40.8373 35.4672 40.517 36.139 40.2201 36.8265C39.9232 37.514 39.6263 38.2094 39.3295 38.9125C38.9545 39.8187 38.5638 40.725 38.1576 41.6312C37.767 42.5219 37.3295 43.3734 36.8451 44.1859C36.3607 44.9984 35.8138 45.7484 35.2045 46.4359C34.6107 47.1078 33.9232 47.6781 33.142 48.1469C32.9232 48.1 32.7357 48.0765 32.5795 48.0765C32.4076 48.0765 32.2592 48.1 32.1342 48.1469C32.0248 48.1937 31.9232 48.2562 31.8295 48.3344C31.1888 48.0375 30.6732 47.6 30.2826 47.0219C29.892 46.4281 29.5092 45.7719 29.1342 45.0531C29.0873 44.9437 29.0326 44.8422 28.9701 44.7484C28.9232 44.639 28.8685 44.5297 28.806 44.4203L28.4076 43.6937L28.1732 43.2484L27.8451 43.5531L27.3529 43.9984L27.0717 44.2797C26.5873 44.7328 26.0951 45.1781 25.5951 45.6156C25.0951 46.0375 24.5717 46.4281 24.0248 46.7875C23.4779 47.1312 22.892 47.4125 22.267 47.6312C21.6576 47.85 21.0013 47.9672 20.2982 47.9828C20.1732 47.9203 20.056 47.8656 19.9467 47.8187C19.8529 47.7719 19.7592 47.725 19.6654 47.6781C19.306 47.5062 19.0092 47.3422 18.7748 47.1859C18.5404 47.0297 18.267 46.7875 17.9545 46.4594Z" fill="#F8DEB6"/>
</svg>
