<svg width="131" height="168" viewBox="0 0 131 168" fill="none" xmlns="http://www.w3.org/2000/svg">
<path d="M114.854 27.5285L114.854 27.5288C116.32 29.0526 117.101 31.107 117.017 33.2191L117.017 33.2194L115.741 64.9229C115.573 69.0876 112.143 72.3741 107.974 72.3741H23.0267C18.8567 72.3741 15.4269 69.0875 15.2594 64.923C15.2594 64.923 15.2594 64.9229 15.2594 64.9229L13.9837 33.2194L13.9837 33.2194C13.8988 31.1075 14.6792 29.0524 16.1457 27.5287L114.854 27.5285ZM114.854 27.5285C113.388 26.0053 111.364 25.1447 109.249 25.1447M114.854 27.5285L109.249 25.1447M109.249 25.1447H21.7507M109.249 25.1447H21.7507M21.7507 25.1447C19.636 25.1447 17.6118 26.0052 16.1459 27.5285L21.7507 25.1447Z" fill="#C5B59B" stroke="#312219" stroke-width="3"/>
<mask id="path-2-outside-1_274_84" maskUnits="userSpaceOnUse" x="16.2646" y="117.771" width="99" height="51" fill="black">
<rect fill="white" x="16.2646" y="117.771" width="99" height="51"/>
<path d="M105.462 120.771H25.5378C23.8305 120.771 22.1966 121.466 21.0138 122.695C19.831 123.924 19.2009 125.582 19.2697 127.285C20.0512 146.709 19.9359 143.84 19.9644 144.55L19.9451 144.071L20.5453 158.988C20.68 162.347 23.4466 165 26.8135 165H104.186C107.553 165 110.32 162.347 110.455 158.989L111.419 135.009L111.246 139.319C111.458 134.05 111.403 135.403 111.73 127.285C111.873 123.733 109.024 120.771 105.462 120.771Z"/>
</mask>
<path d="M105.462 120.771H25.5378C23.8305 120.771 22.1966 121.466 21.0138 122.695C19.831 123.924 19.2009 125.582 19.2697 127.285C20.0512 146.709 19.9359 143.84 19.9644 144.55L19.9451 144.071L20.5453 158.988C20.68 162.347 23.4466 165 26.8135 165H104.186C107.553 165 110.32 162.347 110.455 158.989L111.419 135.009L111.246 139.319C111.458 134.05 111.403 135.403 111.73 127.285C111.873 123.733 109.024 120.771 105.462 120.771Z" fill="#C5B59B"/>
<path d="M19.2697 127.285L22.2672 127.164L22.2672 127.164L19.2697 127.285ZM19.9644 144.55L16.9668 144.671L22.962 144.429L19.9644 144.55ZM19.9451 144.071L22.9426 143.95L16.9475 144.192L19.9451 144.071ZM20.5453 158.988L23.5429 158.868L23.5429 158.867L20.5453 158.988ZM110.455 158.989L107.457 158.868L107.457 158.868L110.455 158.989ZM111.419 135.009L114.417 135.129L108.422 134.888L111.419 135.009ZM111.246 139.319L108.248 139.198L114.243 139.439L111.246 139.319ZM111.73 127.285L108.732 127.164L108.732 127.165L111.73 127.285ZM105.462 117.771H25.5378V123.771H105.462V117.771ZM25.5378 117.771C23.0157 117.771 20.6011 118.797 18.8521 120.615L23.1755 124.775C23.7922 124.134 24.6453 123.771 25.5378 123.771V117.771ZM18.8521 120.615C17.1031 122.432 16.1703 124.885 16.2721 127.406L22.2672 127.164C22.2315 126.279 22.5588 125.416 23.1755 124.775L18.8521 120.615ZM16.2721 127.405C17.0537 146.829 16.9383 143.961 16.9668 144.67L22.962 144.429C22.9334 143.72 23.0488 146.588 22.2672 127.164L16.2721 127.405ZM22.9619 144.429L22.9426 143.95L16.9475 144.192L16.9668 144.671L22.9619 144.429ZM16.9475 144.192L17.5478 159.109L23.5429 158.867L22.9426 143.951L16.9475 144.192ZM17.5478 159.108C17.7472 164.081 21.8412 168 26.8135 168V162C25.052 162 23.6129 160.613 23.5429 158.868L17.5478 159.108ZM26.8135 168H104.186V162H26.8135V168ZM104.186 168C109.158 168 113.252 164.081 113.452 159.109L107.457 158.868C107.387 160.613 105.948 162 104.186 162V168ZM113.452 159.109L114.417 135.129L108.422 134.888L107.457 158.868L113.452 159.109ZM108.422 134.888L108.248 139.198L114.243 139.439L114.417 135.129L108.422 134.888ZM114.243 139.439C114.455 134.171 114.401 135.524 114.728 127.406L108.732 127.165C108.406 135.282 108.46 133.93 108.248 139.198L114.243 139.439ZM114.728 127.406C114.94 122.146 110.723 117.771 105.462 117.771V123.771C107.325 123.771 108.807 125.32 108.732 127.164L114.728 127.406Z" fill="#312219" mask="url(#path-2-outside-1_274_84)"/>
<path d="M116.003 58.4086L116.065 56.8483H114.504H16.4958H14.9342L14.997 58.4086L18.0127 133.357L18.0706 134.797H19.5115H111.488H112.929L112.987 133.357L116.003 58.4086Z" fill="#5B2E12" stroke="#312219" stroke-width="3"/>
<path d="M14.1488 31.2846L14.1488 31.2846C13.658 33.5774 14.2311 35.9684 15.7074 37.7905C17.1836 39.6124 19.4047 40.6705 21.7507 40.6705H109.249C111.595 40.6705 113.816 39.6125 115.292 37.7904C116.769 35.9685 117.342 33.5771 116.85 31.2844L111.788 7.63959L110.321 7.95365L111.788 7.63956C111.02 4.05715 107.851 1.5 104.186 1.5H26.8135C23.1481 1.5 19.9792 4.0572 19.2117 7.6394L19.2117 7.63959L14.1488 31.2846Z" fill="#5A4D46" stroke="#312219" stroke-width="3"/>
<path d="M9.27358 40.6706H121.726C126.017 40.6706 129.5 37.1979 129.5 32.908C129.5 28.6181 126.017 25.145 121.726 25.145H9.27358C4.98283 25.145 1.5 28.6178 1.5 32.9076C1.5 37.1975 4.9831 40.6706 9.27358 40.6706Z" fill="#463B36" stroke="#312219" stroke-width="3"/>
<path d="M38.9696 113.562C38.7613 113.104 38.553 112.667 38.3446 112.25C38.1363 111.833 37.928 111.458 37.7196 111.125C37.2196 110.125 36.7821 109.229 36.4071 108.438C36.0321 107.646 35.678 106.729 35.3446 105.688C35.4696 104.979 35.678 103.792 35.9696 102.125C36.303 100.458 36.678 98.6458 37.0946 96.6875C37.5113 94.6875 37.9488 92.6667 38.4071 90.625C38.9071 88.5833 39.4071 86.8333 39.9071 85.375C40.3655 84.0833 40.8655 82.7083 41.4071 81.25C41.9905 79.7917 42.6155 78.4583 43.2821 77.25C43.9905 76 44.7405 74.9375 45.5321 74.0625C46.3238 73.1875 47.178 72.6667 48.0946 72.5C48.3446 72.8333 48.6155 73.1042 48.9071 73.3125C49.1988 73.4792 49.4696 73.6042 49.7196 73.6875C50.428 74.6875 51.1155 75.5417 51.7821 76.25C52.4488 76.9167 53.2405 77.5833 54.1571 78.25C53.9071 79.5 53.5321 80.8958 53.0321 82.4375C52.5738 83.9375 52.0738 85.4583 51.5321 87C51.0321 88.5417 50.5321 90.0417 50.0321 91.5C49.5321 92.9167 49.1363 94.1458 48.8446 95.1875C48.5946 96.0208 48.3446 96.9792 48.0946 98.0625C47.8863 98.9792 47.6571 100.083 47.4071 101.375C47.1988 102.667 46.9905 104.083 46.7821 105.625C47.3655 105.458 48.0113 105.125 48.7196 104.625C49.4696 104.125 50.1571 103.604 50.7821 103.062C51.5321 102.438 52.2613 101.771 52.9696 101.062C53.928 100.104 54.7405 99.2292 55.4071 98.4375C56.0738 97.6458 56.678 96.8333 57.2196 96C57.803 95.125 58.3863 94.1875 58.9696 93.1875C59.5946 92.1458 60.3238 90.9167 61.1571 89.5C61.9071 88.2917 62.678 87 63.4696 85.625C64.303 84.25 65.1363 82.9375 65.9696 81.6875C66.803 80.4375 67.6155 79.2917 68.4071 78.25C69.1988 77.1667 69.928 76.3333 70.5946 75.75C71.053 76.2083 71.5738 76.6875 72.1571 77.1875C72.7821 77.6875 73.4488 78.0417 74.1571 78.25C74.4488 78.7083 74.7196 79.125 74.9696 79.5C75.2613 79.8333 75.5321 80.1667 75.7821 80.5C76.1155 80.9583 76.4071 81.375 76.6571 81.75C76.9488 82.125 77.1988 82.5417 77.4071 83C77.3655 83.3333 77.2821 83.7708 77.1571 84.3125C77.0738 84.8542 76.9696 85.4583 76.8446 86.125C76.7196 86.75 76.5738 87.3958 76.4071 88.0625C76.2821 88.7292 76.1571 89.375 76.0321 90C75.6155 91.875 75.303 93.2917 75.0946 94.25C74.8863 95.2083 74.7405 95.9583 74.6571 96.5C74.5738 97.0417 74.5113 97.5 74.4696 97.875C74.4696 98.25 74.4696 98.7708 74.4696 99.4375C74.4696 99.9375 74.5113 100.438 74.5946 100.938C74.678 101.396 74.7613 101.875 74.8446 102.375C74.9696 102.833 75.178 103.271 75.4696 103.688L78.4696 101.375C79.303 100.75 80.0946 99.875 80.8446 98.75C81.6363 97.5833 82.3863 96.2708 83.0946 94.8125C83.8446 93.3125 84.5738 91.7083 85.2821 90C85.9905 88.25 86.6988 86.4583 87.4071 84.625C87.9071 83.2917 88.4071 81.9792 88.9071 80.6875C89.4488 79.3542 89.9905 78.1042 90.5321 76.9375C91.0738 75.7292 91.5946 74.6458 92.0946 73.6875C92.6363 72.6875 93.1571 71.8542 93.6571 71.1875C94.7821 71.8958 95.7405 72.6042 96.5321 73.3125C97.3655 74.0208 98.0738 74.8125 98.6571 75.6875C99.2821 76.5208 99.7613 77.5 100.095 78.625C100.47 79.7083 100.74 81 100.907 82.5C99.9905 84.25 99.1363 86.0417 98.3446 87.875C97.553 89.7083 96.7613 91.5625 95.9696 93.4375C94.9696 95.8542 93.928 98.2708 92.8446 100.688C91.803 103.062 90.6363 105.333 89.3446 107.5C88.053 109.667 86.5946 111.667 84.9696 113.5C83.3863 115.292 81.553 116.812 79.4696 118.062C78.8863 117.938 78.3863 117.875 77.9696 117.875C77.5113 117.875 77.1155 117.938 76.7821 118.062C76.4905 118.188 76.2196 118.354 75.9696 118.562C74.2613 117.771 72.8863 116.604 71.8446 115.062C70.803 113.479 69.7821 111.729 68.7821 109.812C68.6571 109.521 68.5113 109.25 68.3446 109C68.2196 108.708 68.0738 108.417 67.9071 108.125L66.8446 106.188L66.2196 105L65.3446 105.812L64.0321 107L63.2821 107.75C61.9905 108.958 60.678 110.146 59.3446 111.312C58.0113 112.438 56.6155 113.479 55.1571 114.438C53.6988 115.354 52.1363 116.104 50.4696 116.688C48.8446 117.271 47.0946 117.583 45.2196 117.625C44.8863 117.458 44.5738 117.312 44.2821 117.188C44.0321 117.062 43.7821 116.938 43.5321 116.812C42.5738 116.354 41.7821 115.917 41.1571 115.5C40.5321 115.083 39.803 114.438 38.9696 113.562Z" fill="white"/>
</svg>
