<svg width="200" height="200" viewBox="0 0 200 200" fill="none" xmlns="http://www.w3.org/2000/svg">
<g clip-path="url(#clip0_256_28)">
<path d="M41.5859 32.6056L41.586 32.6055C42.761 31.3823 44.384 30.6909 46.0801 30.6909H153.92C155.616 30.6909 157.238 31.3821 158.414 32.6053C159.589 33.8289 160.215 35.4782 160.147 37.1736L158.575 76.3135L160.073 76.3737L158.575 76.3136C158.441 79.6549 155.692 82.2952 152.348 82.2952H47.6527C44.3078 82.2952 41.5599 79.6549 41.4257 76.3136L41.4257 76.3135L39.8535 37.1734C39.8535 37.1733 39.8535 37.1733 39.8535 37.1733C39.7855 35.4778 40.4109 33.8284 41.5859 32.6056Z" fill="#C5B59B" stroke="#312219" stroke-width="3"/>
<mask id="path-2-inside-1_256_28" fill="white">
<path d="M149.252 145.396H50.7477C48.6434 145.396 46.6297 146.254 45.1719 147.772C43.7141 149.289 42.9375 151.336 43.0223 153.438C43.9856 177.418 43.8434 173.877 43.8785 174.753L43.8547 174.162L44.5945 192.578C44.7606 196.725 48.1703 200 52.3199 200H147.68C151.829 200 155.239 196.725 155.405 192.579L156.595 162.974L156.38 168.295C156.642 161.791 156.575 163.461 156.977 153.439C157.154 149.053 153.642 145.396 149.252 145.396Z"/>
</mask>
<path d="M149.252 145.396H50.7477C48.6434 145.396 46.6297 146.254 45.1719 147.772C43.7141 149.289 42.9375 151.336 43.0223 153.438C43.9856 177.418 43.8434 173.877 43.8785 174.753L43.8547 174.162L44.5945 192.578C44.7606 196.725 48.1703 200 52.3199 200H147.68C151.829 200 155.239 196.725 155.405 192.579L156.595 162.974L156.38 168.295C156.642 161.791 156.575 163.461 156.977 153.439C157.154 149.053 153.642 145.396 149.252 145.396Z" fill="#C5B59B"/>
<path d="M43.0223 153.438L46.0199 153.318L46.0198 153.317L43.0223 153.438ZM43.8785 174.753L40.881 174.874L46.8761 174.633L43.8785 174.753ZM43.8547 174.162L46.8523 174.042L40.8571 174.283L43.8547 174.162ZM44.5945 192.578L47.5921 192.458L47.5921 192.458L44.5945 192.578ZM155.405 192.579L152.408 192.459L152.408 192.459L155.405 192.579ZM156.595 162.974L159.592 163.094L153.597 162.853L156.595 162.974ZM156.38 168.295L153.383 168.174L159.378 168.416L156.38 168.295ZM156.977 153.439L153.98 153.318L153.98 153.319L156.977 153.439ZM149.252 142.396H50.7477V148.396H149.252V142.396ZM50.7477 142.396C47.8269 142.396 45.0319 143.587 43.0084 145.694L47.3354 149.85C48.2275 148.921 49.4599 148.396 50.7477 148.396V142.396ZM43.0084 145.694C40.9851 147.8 39.907 150.64 40.0247 153.559L46.0198 153.317C45.968 152.032 46.443 150.779 47.3354 149.85L43.0084 145.694ZM40.0247 153.559C40.988 177.539 40.8458 173.998 40.8809 174.873L46.8761 174.633C46.8409 173.757 46.9831 177.298 46.0199 153.318L40.0247 153.559ZM46.8761 174.632L46.8523 174.042L40.8571 174.283L40.881 174.874L46.8761 174.632ZM40.8571 174.283L41.597 192.699L47.5921 192.458L46.8523 174.042L40.8571 174.283ZM41.5969 192.698C41.8274 198.454 46.5603 203 52.3199 203V197C49.7803 197 47.6937 194.996 47.5921 192.458L41.5969 192.698ZM52.3199 203H147.68V197H52.3199V203ZM147.68 203C153.439 203 158.172 198.454 158.403 192.699L152.408 192.459C152.306 194.996 150.219 197 147.68 197V203ZM158.403 192.699L159.592 163.094L153.597 162.853L152.408 192.459L158.403 192.699ZM153.597 162.853L153.383 168.174L159.378 168.416L159.592 163.094L153.597 162.853ZM159.378 168.415C159.639 161.911 159.572 163.581 159.975 153.56L153.98 153.319C153.577 163.34 153.644 161.67 153.383 168.174L159.378 168.415ZM159.975 153.56C160.22 147.471 155.347 142.396 149.252 142.396V148.396C151.938 148.396 154.088 150.635 153.98 153.318L159.975 153.56Z" fill="#312219" mask="url(#path-2-inside-1_256_28)"/>
<path d="M44.7613 159.36L41.165 69.8313H158.835L155.238 159.36H44.7613Z" fill="#5B2E12" stroke="#312219" stroke-width="3"/>
<path d="M160.014 35.6208L160.014 35.6206L153.774 6.42921C153.159 3.55431 150.619 1.5 147.68 1.5H52.3199C49.38 1.5 46.8405 3.55417 46.2254 6.42918L160.014 35.6208ZM160.014 35.6208C160.407 37.4606 159.948 39.3797 158.765 40.8419L158.765 40.8424C157.582 42.3049 155.801 43.1551 153.919 43.1551H46.0801C44.1986 43.1551 42.4178 42.305 41.2346 40.8422C40.0514 39.3795 39.5924 37.4605 39.9856 35.6206C39.9856 35.6206 39.9856 35.6206 39.9856 35.6205L46.2254 6.42936L160.014 35.6208Z" fill="#5A4D46" stroke="#312219" stroke-width="3"/>
<path d="M169.298 43.1551H30.7023C27.2608 43.1551 24.4703 40.3649 24.4703 36.923C24.4703 33.4813 27.2604 30.6914 30.7023 30.6914H169.298C172.739 30.6914 175.53 33.4816 175.53 36.9234C175.53 40.3652 172.739 43.1551 169.298 43.1551Z" fill="#463B36" stroke="#312219" stroke-width="3"/>
<path d="M66.3281 141.453C66.0677 140.88 65.8073 140.333 65.5469 139.812C65.2865 139.292 65.026 138.823 64.7656 138.406C64.1406 137.156 63.5938 136.036 63.125 135.047C62.6562 134.057 62.2135 132.911 61.7969 131.609C61.9531 130.724 62.2135 129.24 62.5781 127.156C62.9948 125.073 63.4635 122.807 63.9844 120.359C64.5052 117.859 65.0521 115.333 65.625 112.781C66.25 110.229 66.875 108.042 67.5 106.219C68.0729 104.604 68.6979 102.885 69.375 101.062C70.1042 99.2396 70.8854 97.5729 71.7188 96.0625C72.6042 94.5 73.5417 93.1719 74.5312 92.0781C75.5208 90.9844 76.5885 90.3333 77.7344 90.125C78.0469 90.5417 78.3854 90.8802 78.75 91.1406C79.1146 91.349 79.4531 91.5052 79.7656 91.6094C80.651 92.8594 81.5104 93.9271 82.3438 94.8125C83.1771 95.6458 84.1667 96.4792 85.3125 97.3125C85 98.875 84.5312 100.62 83.9062 102.547C83.3333 104.422 82.7083 106.323 82.0312 108.25C81.4062 110.177 80.7812 112.052 80.1562 113.875C79.5312 115.646 79.0365 117.182 78.6719 118.484C78.3594 119.526 78.0469 120.724 77.7344 122.078C77.474 123.224 77.1875 124.604 76.875 126.219C76.6146 127.833 76.3542 129.604 76.0938 131.531C76.8229 131.323 77.6302 130.906 78.5156 130.281C79.4531 129.656 80.3125 129.005 81.0938 128.328C82.0312 127.547 82.9427 126.714 83.8281 125.828C85.026 124.63 86.0417 123.536 86.875 122.547C87.7083 121.557 88.4635 120.542 89.1406 119.5C89.8698 118.406 90.599 117.234 91.3281 115.984C92.1094 114.682 93.0208 113.146 94.0625 111.375C95 109.865 95.9635 108.25 96.9531 106.531C97.9948 104.812 99.0365 103.172 100.078 101.609C101.12 100.047 102.135 98.6146 103.125 97.3125C104.115 95.9583 105.026 94.9167 105.859 94.1875C106.432 94.7604 107.083 95.3594 107.812 95.9844C108.594 96.6094 109.427 97.0521 110.312 97.3125C110.677 97.8854 111.016 98.4062 111.328 98.875C111.693 99.2917 112.031 99.7083 112.344 100.125C112.76 100.698 113.125 101.219 113.438 101.688C113.802 102.156 114.115 102.677 114.375 103.25C114.323 103.667 114.219 104.214 114.062 104.891C113.958 105.568 113.828 106.323 113.672 107.156C113.516 107.938 113.333 108.745 113.125 109.578C112.969 110.411 112.812 111.219 112.656 112C112.135 114.344 111.745 116.115 111.484 117.312C111.224 118.51 111.042 119.448 110.938 120.125C110.833 120.802 110.755 121.375 110.703 121.844C110.703 122.312 110.703 122.964 110.703 123.797C110.703 124.422 110.755 125.047 110.859 125.672C110.964 126.245 111.068 126.844 111.172 127.469C111.328 128.042 111.589 128.589 111.953 129.109L115.703 126.219C116.745 125.438 117.734 124.344 118.672 122.938C119.661 121.479 120.599 119.839 121.484 118.016C122.422 116.141 123.333 114.135 124.219 112C125.104 109.812 125.99 107.573 126.875 105.281C127.5 103.615 128.125 101.974 128.75 100.359C129.427 98.6927 130.104 97.1302 130.781 95.6719C131.458 94.1615 132.109 92.8073 132.734 91.6094C133.411 90.3594 134.062 89.3177 134.688 88.4844C136.094 89.3698 137.292 90.2552 138.281 91.1406C139.323 92.026 140.208 93.0156 140.938 94.1094C141.719 95.151 142.318 96.375 142.734 97.7812C143.203 99.1354 143.542 100.75 143.75 102.625C142.604 104.812 141.536 107.052 140.547 109.344C139.557 111.635 138.568 113.953 137.578 116.297C136.328 119.318 135.026 122.339 133.672 125.359C132.37 128.328 130.911 131.167 129.297 133.875C127.682 136.583 125.859 139.083 123.828 141.375C121.849 143.615 119.557 145.516 116.953 147.078C116.224 146.922 115.599 146.844 115.078 146.844C114.505 146.844 114.01 146.922 113.594 147.078C113.229 147.234 112.891 147.443 112.578 147.703C110.443 146.714 108.724 145.255 107.422 143.328C106.12 141.349 104.844 139.161 103.594 136.766C103.438 136.401 103.255 136.062 103.047 135.75C102.891 135.385 102.708 135.021 102.5 134.656L101.172 132.234L100.391 130.75L99.2969 131.766L97.6562 133.25L96.7188 134.188C95.1042 135.698 93.4635 137.182 91.7969 138.641C90.1302 140.047 88.3854 141.349 86.5625 142.547C84.7396 143.693 82.7865 144.63 80.7031 145.359C78.6719 146.089 76.4844 146.479 74.1406 146.531C73.724 146.323 73.3333 146.141 72.9688 145.984C72.6562 145.828 72.3438 145.672 72.0312 145.516C70.8333 144.943 69.8438 144.396 69.0625 143.875C68.2812 143.354 67.3698 142.547 66.3281 141.453Z" fill="white"/>
</g>
<defs>
<clipPath id="clip0_256_28">
<rect width="200" height="200" fill="white"/>
</clipPath>
</defs>
</svg>
