<svg width="50" height="50" viewBox="0 0 50 50" fill="none" xmlns="http://www.w3.org/2000/svg">
<path d="M24.6774 0C10.6956 0 0 10.8869 0 25.2271C0 36.693 7.03629 46.5047 17.0867 49.9579C18.377 50.1957 18.8306 49.3789 18.8306 48.7069C18.8306 48.0658 18.8004 44.5299 18.8004 42.3587C18.8004 42.3587 11.744 43.9096 10.2621 39.2777C10.2621 39.2777 9.1129 36.2691 7.45968 35.4937C7.45968 35.4937 5.15121 33.8704 7.62097 33.9015C7.62097 33.9015 10.131 34.1082 11.5121 36.5689C13.7198 40.5598 17.4194 39.4121 18.8609 38.7298C19.0927 37.0755 19.748 35.9279 20.4738 35.2455C14.8387 34.6045 9.15323 33.7671 9.15323 23.821C9.15323 20.9778 9.91935 19.551 11.5323 17.7313C11.2702 17.0593 10.4133 14.2884 11.7944 10.7112C13.9012 10.0391 18.75 13.5027 18.75 13.5027C20.7661 12.9237 22.9335 12.6239 25.0806 12.6239C27.2278 12.6239 29.3952 12.9237 31.4113 13.5027C31.4113 13.5027 36.2601 10.0288 38.3669 10.7112C39.748 14.2988 38.8911 17.0593 38.629 17.7313C40.2419 19.5613 41.2298 20.9881 41.2298 23.821C41.2298 33.7981 35.2923 34.5942 29.6573 35.2455C30.5847 36.0623 31.371 37.6132 31.371 40.0428C31.371 43.527 31.3407 47.8384 31.3407 48.6862C31.3407 49.3582 31.8044 50.175 33.0847 49.9372C43.1653 46.5047 50 36.693 50 25.2271C50 10.8869 38.6593 0 24.6774 0Z" fill="white"/>
</svg>
