<svg width="800" height="800" viewBox="0 0 800 800" fill="none" xmlns="http://www.w3.org/2000/svg">
<rect x="107" y="114" width="556" height="557" fill="#D9D9D9"/>
<path d="M60.231 0C52.8779 0 47.3997 5.99222 48.0528 13.3141L110.039 708.596C110.692 715.92 117.02 723.521 124.108 725.489L387.147 798.523C394.233 800.491 405.825 800.491 412.913 798.528L676.752 725.373C683.838 723.407 690.174 715.807 690.825 708.485L752.915 13.3141C753.573 5.99222 748.088 0 740.735 0H60.231ZM620.906 159.46C620.32 165.992 619.308 177.331 618.655 184.654L617.022 202.896C616.364 210.217 615.428 220.687 614.934 226.161C614.442 231.636 613.975 236.115 613.889 236.115C613.806 236.115 607.72 236.115 600.369 236.115H413.852C406.499 236.115 400.422 236.115 400.342 236.115C400.263 236.115 394.18 236.115 386.827 236.115H288.595C281.242 236.115 275.764 242.108 276.417 249.43L282.146 313.477C282.8 320.797 289.353 326.791 296.704 326.791H386.828C394.181 326.791 400.263 326.791 400.344 326.791C400.425 326.791 406.502 326.791 413.853 326.791H568.764C576.117 326.791 587.495 326.791 594.048 326.791C600.597 326.791 605.473 332.136 604.88 338.668C604.283 345.199 603.264 356.541 602.612 363.861L584.189 570.347C583.531 577.671 582.7 587.025 582.342 591.138C581.976 595.247 575.882 600.218 568.797 602.183L413.367 645.28C406.281 647.243 400.396 648.868 400.285 648.893C400.175 648.916 394.291 647.326 387.202 645.362L231.607 602.186C224.521 600.221 218.19 592.621 217.538 585.297L207.523 472.882C206.869 465.559 212.354 459.567 219.707 459.567H233.907C241.26 459.567 253.292 459.567 260.643 459.567H281.818C289.171 459.567 295.718 465.559 296.376 472.882L300.304 516.889C300.957 524.212 307.297 531.77 314.397 533.688L387.177 553.342C394.272 555.259 400.106 556.828 400.139 556.828C400.172 556.828 406.003 555.256 413.102 553.339L486.013 533.637C493.109 531.72 499.454 524.159 500.112 516.839L508.018 428.671C508.676 421.348 503.198 415.356 495.845 415.356H413.853C406.5 415.356 400.424 415.356 400.344 415.356C400.264 415.356 394.181 415.356 386.828 415.356H215.743C208.39 415.356 201.843 409.362 201.19 402.041L181.79 184.656C181.136 177.332 180.124 165.996 179.538 159.462C178.958 152.931 184.494 147.585 191.847 147.585H386.828C394.181 147.585 400.263 147.585 400.344 147.585C400.425 147.585 406.502 147.585 413.853 147.585H608.598C615.95 147.582 621.489 152.926 620.906 159.46Z" fill="#DD512A"/>
</svg>
