<svg width="74" height="84" viewBox="0 0 74 84" fill="none" xmlns="http://www.w3.org/2000/svg">
<path d="M73.4943 0L66.7988 75.0068L36.7022 83.3504L6.68855 75.0183L0 0H73.4943Z" fill="#E44D26"/>
<path d="M36.7471 76.9728L61.0667 70.2306L66.7881 6.13379H36.7471V76.9728Z" fill="#F16529"/>
<path d="M23.7313 24.5354H36.7472V15.3347H13.6761L13.8962 17.8031L16.1577 43.1577H36.7472V33.9571H24.5722L23.7313 24.5354ZM25.805 47.7582H16.5688L17.8578 62.2047L36.7048 67.4364L36.7472 67.4249V57.8523L36.7068 57.8629L26.4601 55.0961L25.805 47.7582Z" fill="#EBEBEB"/>
<path d="M36.7154 43.1577H48.0451L46.9769 55.0904L36.7151 57.8601V67.4321L55.5772 62.2047L55.7155 60.6502L57.8779 36.4277L58.1023 33.9571H36.7154V43.1577ZM36.7154 24.5129V24.5354H58.9395L59.1238 22.4675L59.5433 17.8031L59.7631 15.3347H36.7154V24.5129Z" fill="white"/>
</svg>
